M48
; DRILL file {KiCad 9.0.2} date 2025-07-02T22:21:51+0100
; FORMAT={-:-/ absolute / metric / decimal}
; #@! TF.CreationDate,2025-07-02T22:21:51+01:00
; #@! TF.GenerationSoftware,Kicad,Pcbnew,9.0.2
; #@! TF.FileFunction,Plated,1,2,PTH
FMAT,2
METRIC
; #@! TA.AperFunction,Plated,PTH,ComponentDrill
T1C0.700
; #@! TA.AperFunction,Plated,PTH,ComponentDrill
T2C0.889
; #@! TA.AperFunction,Plated,PTH,ComponentDrill
T3C1.210
; #@! TA.AperFunction,Plated,PTH,ComponentDrill
T4C1.500
%
G90
G05
T1
X120.46Y-93.5
X125.54Y-93.5
X139.73Y-112.5
X144.81Y-112.5
X159.27Y-93.0
X164.35Y-93.0
T2
X175.951Y-90.78
X175.951Y-106.02
X178.492Y-90.78
X178.492Y-106.02
X181.031Y-90.78
X181.031Y-106.02
X183.571Y-90.78
X183.571Y-106.02
X186.111Y-90.78
X186.111Y-106.02
X188.651Y-90.78
X188.651Y-106.02
X191.191Y-90.78
X191.191Y-106.02
T3
X121.77Y-86.5
X124.31Y-86.5
X141.0Y-106.0
X143.54Y-106.0
X160.54Y-86.5
X163.08Y-86.5
T4
X119.49Y-105.04
X125.84Y-102.5
X138.54Y-86.0
X144.89Y-83.46
X157.64Y-105.1
X163.99Y-102.56
M30
