%TF.GenerationSoftware,KiCad,Pcbnew,9.0.2*%
%TF.CreationDate,2025-07-02T22:19:11+01:00*%
%TF.ProjectId,sharfinder,73686172-6669-46e6-9465-722e6b696361,rev?*%
%TF.SameCoordinates,Original*%
%TF.FileFunction,Copper,L1,Top*%
%TF.FilePolarity,Positive*%
%FSLAX46Y46*%
G04 Gerber Fmt 4.6, Leading zero omitted, Abs format (unit mm)*
G04 Created by KiCad (PCBNEW 9.0.2) date 2025-07-02 22:19:11*
%MOMM*%
%LPD*%
G01*
G04 APERTURE LIST*
G04 Aperture macros list*
%AMRoundRect*
0 Rectangle with rounded corners*
0 $1 Rounding radius*
0 $2 $3 $4 $5 $6 $7 $8 $9 X,Y pos of 4 corners*
0 Add a 4 corners polygon primitive as box body*
4,1,4,$2,$3,$4,$5,$6,$7,$8,$9,$2,$3,0*
0 Add four circle primitives for the rounded corners*
1,1,$1+$1,$2,$3*
1,1,$1+$1,$4,$5*
1,1,$1+$1,$6,$7*
1,1,$1+$1,$8,$9*
0 Add four rect primitives between the rounded corners*
20,1,$1+$1,$2,$3,$4,$5,0*
20,1,$1+$1,$4,$5,$6,$7,0*
20,1,$1+$1,$6,$7,$8,$9,0*
20,1,$1+$1,$8,$9,$2,$3,0*%
G04 Aperture macros list end*
%TA.AperFunction,ComponentPad*%
%ADD10C,1.815000*%
%TD*%
%TA.AperFunction,ComponentPad*%
%ADD11R,1.815000X1.815000*%
%TD*%
%TA.AperFunction,ComponentPad*%
%ADD12C,1.400000*%
%TD*%
%TA.AperFunction,ComponentPad*%
%ADD13C,2.200000*%
%TD*%
%TA.AperFunction,SMDPad,CuDef*%
%ADD14RoundRect,0.152400X0.609600X-1.063600X0.609600X1.063600X-0.609600X1.063600X-0.609600X-1.063600X0*%
%TD*%
%TA.AperFunction,ComponentPad*%
%ADD15C,1.524000*%
%TD*%
%TA.AperFunction,SMDPad,CuDef*%
%ADD16RoundRect,0.152400X-0.609600X1.063600X-0.609600X-1.063600X0.609600X-1.063600X0.609600X1.063600X0*%
%TD*%
%TA.AperFunction,Conductor*%
%ADD17C,0.200000*%
%TD*%
G04 APERTURE END LIST*
D10*
%TO.P,D3,A*%
%TO.N,Net-(D3-PadA)*%
X163080000Y-86500000D03*
D11*
%TO.P,D3,C*%
%TO.N,GND*%
X160540000Y-86500000D03*
%TD*%
D12*
%TO.P,R3,1*%
%TO.N,Net-(D3-PadA)*%
X159270000Y-93000000D03*
%TO.P,R3,2*%
%TO.N,LED3*%
X164350000Y-93000000D03*
%TD*%
D13*
%TO.P,SW2,1,1*%
%TO.N,SW2*%
X144890000Y-83460000D03*
%TO.P,SW2,2,2*%
%TO.N,GND*%
X138540000Y-86000000D03*
%TD*%
D12*
%TO.P,R1,1*%
%TO.N,Net-(D1-PadA)*%
X125540000Y-93500000D03*
%TO.P,R1,2*%
%TO.N,LED1*%
X120460000Y-93500000D03*
%TD*%
D13*
%TO.P,SW3,1,1*%
%TO.N,SW3*%
X163990000Y-102560000D03*
%TO.P,SW3,2,2*%
%TO.N,GND*%
X157640000Y-105100000D03*
%TD*%
D10*
%TO.P,D1,A*%
%TO.N,Net-(D1-PadA)*%
X124310000Y-86500000D03*
D11*
%TO.P,D1,C*%
%TO.N,GND*%
X121770000Y-86500000D03*
%TD*%
D12*
%TO.P,R2,1*%
%TO.N,Net-(D2-PadA)*%
X144810000Y-112500000D03*
%TO.P,R2,2*%
%TO.N,LED2*%
X139730000Y-112500000D03*
%TD*%
D14*
%TO.P,U1,1,GPIO26/ADC0/A0*%
%TO.N,LED1*%
X191191500Y-89945000D03*
D15*
X191191500Y-90780000D03*
D14*
%TO.P,U1,2,GPIO27/ADC1/A1*%
%TO.N,LED2*%
X188651500Y-89945000D03*
D15*
X188651500Y-90780000D03*
D14*
%TO.P,U1,3,GPIO28/ADC2/A2*%
%TO.N,LED3*%
X186111500Y-89945000D03*
D15*
X186111500Y-90780000D03*
D14*
%TO.P,U1,4,GPIO29/ADC3/A3*%
%TO.N,SW1*%
X183571500Y-89945000D03*
D15*
X183571500Y-90780000D03*
D14*
%TO.P,U1,5,GPIO6/SDA*%
%TO.N,SW2*%
X181031500Y-89945000D03*
D15*
X181031500Y-90780000D03*
D14*
%TO.P,U1,6,GPIO7/SCL*%
%TO.N,SW3*%
X178491500Y-89945000D03*
D15*
X178491500Y-90780000D03*
D14*
%TO.P,U1,7,GPIO0/TX*%
%TO.N,unconnected-(U1-GPIO0{slash}TX-Pad7)*%
X175951500Y-89945000D03*
D15*
X175951500Y-90780000D03*
%TO.P,U1,8,GPIO1/RX*%
%TO.N,unconnected-(U1-GPIO1{slash}RX-Pad8)*%
X175951500Y-106020000D03*
D16*
X175951500Y-106855000D03*
D15*
%TO.P,U1,9,GPIO2/SCK*%
%TO.N,unconnected-(U1-GPIO2{slash}SCK-Pad9)*%
X178491500Y-106020000D03*
D16*
X178491500Y-106855000D03*
D15*
%TO.P,U1,10,GPIO4/MISO*%
%TO.N,unconnected-(U1-GPIO4{slash}MISO-Pad10)*%
X181031500Y-106020000D03*
D16*
X181031500Y-106855000D03*
D15*
%TO.P,U1,11,GPIO3/MOSI*%
%TO.N,unconnected-(U1-GPIO3{slash}MOSI-Pad11)*%
X183571500Y-106020000D03*
D16*
X183571500Y-106855000D03*
D15*
%TO.P,U1,12,3V3*%
%TO.N,unconnected-(U1-3V3-Pad12)*%
X186111500Y-106020000D03*
D16*
X186111500Y-106855000D03*
D15*
%TO.P,U1,13,GND*%
%TO.N,GND*%
X188651500Y-106020000D03*
D16*
X188651500Y-106855000D03*
D15*
%TO.P,U1,14,VBUS*%
%TO.N,unconnected-(U1-VBUS-Pad14)*%
X191191500Y-106020000D03*
D16*
X191191500Y-106855000D03*
%TD*%
D10*
%TO.P,D2,A*%
%TO.N,Net-(D2-PadA)*%
X143540000Y-106000000D03*
D11*
%TO.P,D2,C*%
%TO.N,GND*%
X141000000Y-106000000D03*
%TD*%
D13*
%TO.P,SW1,1,1*%
%TO.N,SW1*%
X125840000Y-102500000D03*
%TO.P,SW1,2,2*%
%TO.N,GND*%
X119490000Y-105040000D03*
%TD*%
D17*
%TO.N,Net-(D1-PadA)*%
X124310000Y-92270000D02*
X125540000Y-93500000D01*
X124310000Y-86500000D02*
X124310000Y-92270000D01*
%TO.N,GND*%
X138540000Y-86000000D02*
X136984366Y-86000000D01*
X119490000Y-105040000D02*
X121940000Y-105040000D01*
X141000000Y-106000000D02*
X140240000Y-106000000D01*
X121770000Y-86500000D02*
X121770000Y-104870000D01*
X150340000Y-113501000D02*
X182005500Y-113501000D01*
X157640000Y-105100000D02*
X156084366Y-105100000D01*
X121940000Y-105040000D02*
X129734372Y-105040000D01*
X136984366Y-86000000D02*
X131817186Y-91167180D01*
X150340000Y-110844366D02*
X150340000Y-113501000D01*
X135467186Y-110772814D02*
X138195372Y-113501000D01*
X150840000Y-106000000D02*
X153012183Y-108172183D01*
X131817186Y-91167180D02*
X131817186Y-107122814D01*
X131817186Y-107122814D02*
X135467186Y-110772814D01*
X121770000Y-104870000D02*
X121940000Y-105040000D01*
X138195372Y-113501000D02*
X150340000Y-113501000D01*
X150840000Y-96200000D02*
X150840000Y-106000000D01*
X160540000Y-86500000D02*
X150840000Y-96200000D01*
X140240000Y-106000000D02*
X135467186Y-110772814D01*
X129734372Y-105040000D02*
X131817186Y-107122814D01*
X182005500Y-113501000D02*
X188651500Y-106855000D01*
X153012183Y-108172183D02*
X150340000Y-110844366D01*
X156084366Y-105100000D02*
X153012183Y-108172183D01*
%TO.N,Net-(D2-PadA)*%
X143540000Y-111230000D02*
X144810000Y-112500000D01*
X143540000Y-106000000D02*
X143540000Y-111230000D01*
X143580000Y-106040000D02*
X143540000Y-106000000D01*
%TO.N,Net-(D3-PadA)*%
X163080000Y-89190000D02*
X159270000Y-93000000D01*
X163080000Y-86500000D02*
X163080000Y-89190000D01*
%TO.N,LED1*%
X118640000Y-91680000D02*
X118640000Y-83800000D01*
X118640000Y-83800000D02*
X122840000Y-79600000D01*
X120460000Y-93500000D02*
X118640000Y-91680000D01*
X122840000Y-79600000D02*
X181089130Y-79600000D01*
X191191500Y-89702370D02*
X191191500Y-90780000D01*
X181089130Y-79600000D02*
X191191500Y-89702370D01*
%TO.N,LED3*%
X164350000Y-93000000D02*
X183891500Y-93000000D01*
X183891500Y-93000000D02*
X186111500Y-90780000D01*
%TO.N,SW2*%
X144890000Y-83460000D02*
X174789130Y-83460000D01*
X174789130Y-83460000D02*
X181031500Y-89702370D01*
X181031500Y-89702370D02*
X181031500Y-90780000D01*
%TO.N,SW3*%
X177272500Y-91999000D02*
X163935372Y-91999000D01*
X178491500Y-90780000D02*
X177272500Y-91999000D01*
X163349000Y-92585372D02*
X163349000Y-101919000D01*
X163349000Y-101919000D02*
X163990000Y-102560000D01*
X163935372Y-91999000D02*
X163349000Y-92585372D01*
%TD*%
M02*
